# xmcd
#
# Track frame offsets: 
#        150
#        7945
#        15060
#        25835
#        34715
#        41857
#        49937
#        59915
#        71270
#        83792
#        93587
#        102667
#        113447
#        122917
#        130665
#        141932
#        150127
#        159495
#        170785
#        177640
#        185407
#        195050
#        204122
#        214237
#        222547
#
# Disc length: 3110 seconds
#
# Revision: 0
# Processed by: cddbd v1.4PL0 Copyright (c) Steve Scherf et al.
# Submitted via: ExactAudioCopy v0.90a11
#
DISCID=550c2419
DTITLE=Sons of the Pioneers - Symphonies of the Sage
DYEAR=1900
DGENRE=
TTITLE0=When Pay Day Rolls Around
TTITLE1=Sagebrush Symphony
TTITLE2=Song of the Bandit
TTITLE3=Ne-Ha-Nee
TTITLE4=The Howlin' Pup
TTITLE5=Rocky Mountain Express
TTITLE6=One More Ride
TTITLE7=So Long to the Red River Valley
TTITLE8=Coyote Serenade
TTITLE9=South in My Soul
TTITLE10=Cool Water
TTITLE11=Rainbow over the Range
TTITLE12=Happy Cowboy
TTITLE13=The Texas Crapshooter
TTITLE14=At the Old Barn Dance
TTITLE15=Move Along You Lazy Cattle
TTITLE16=Swingin' the Bow
TTITLE17=Whoopee Ti Yi Yo
TTITLE18=Jubilation Jamboree
TTITLE19=Bound for the Rio Grande
TTITLE20=Cactus Swing
TTITLE21=Ridin' Down the Canyon
TTITLE22=Saddle Your Worries to the Wind
TTITLE23=Cajon Stomp
TTITLE24=Trail Dreamin'
EXTD=
EXTT0=
EXTT1=
EXTT2=
EXTT3=
EXTT4=
EXTT5=
EXTT6=
EXTT7=
EXTT8=
EXTT9=
EXTT10=
EXTT11=
EXTT12=
EXTT13=
EXTT14=
EXTT15=
EXTT16=
EXTT17=
EXTT18=
EXTT19=
EXTT20=
EXTT21=
EXTT22=
EXTT23=
EXTT24=
PLAYORDER=
